<svg xmlns="http://www.w3.org/2000/svg" viewBox="0 0 32 32" width="192" height="192" shape-rendering="crispEdges">
<title>UDB Aula Sync</title>
<rect x="2" y="0" width="28" height="1" fill="#0f1b3d"/>
<rect x="1" y="1" width="1" height="1" fill="#0f1b3d"/>
<rect x="2" y="1" width="28" height="1" fill="#e6eefc"/>
<rect x="30" y="1" width="1" height="1" fill="#0f1b3d"/>
<rect x="0" y="2" width="1" height="1" fill="#0f1b3d"/>
<rect x="1" y="2" width="30" height="1" fill="#e6eefc"/>
<rect x="31" y="2" width="1" height="1" fill="#0f1b3d"/>
<rect x="0" y="3" width="1" height="1" fill="#0f1b3d"/>
<rect x="1" y="3" width="12" height="1" fill="#e6eefc"/>
<rect x="13" y="3" width="6" height="1" fill="#0f1b3d"/>
<rect x="19" y="3" width="6" height="1" fill="#e6eefc"/>
<rect x="25" y="3" width="1" height="1" fill="#f5c518"/>
<rect x="26" y="3" width="5" height="1" fill="#e6eefc"/>
<rect x="31" y="3" width="1" height="1" fill="#0f1b3d"/>
<rect x="0" y="4" width="1" height="1" fill="#0f1b3d"/>
<rect x="1" y="4" width="5" height="1" fill="#e6eefc"/>
<rect x="6" y="4" width="2" height="1" fill="#6fa3ff"/>
<rect x="8" y="4" width="2" height="1" fill="#0f1b3d"/>
<rect x="10" y="4" width="3" height="1" fill="#e6eefc"/>
<rect x="13" y="4" width="1" height="1" fill="#0f1b3d"/>
<rect x="14" y="4" width="1" height="1" fill="#d9a40b"/>
<rect x="15" y="4" width="3" height="1" fill="#f5c518"/>
<rect x="18" y="4" width="1" height="1" fill="#0f1b3d"/>
<rect x="19" y="4" width="5" height="1" fill="#e6eefc"/>
<rect x="24" y="4" width="1" height="1" fill="#f5c518"/>
<rect x="25" y="4" width="1" height="1" fill="#ffffff"/>
<rect x="26" y="4" width="1" height="1" fill="#f5c518"/>
<rect x="27" y="4" width="4" height="1" fill="#e6eefc"/>
<rect x="31" y="4" width="1" height="1" fill="#0f1b3d"/>
<rect x="0" y="5" width="1" height="1" fill="#0f1b3d"/>
<rect x="1" y="5" width="3" height="1" fill="#e6eefc"/>
<rect x="4" y="5" width="2" height="1" fill="#0f1b3d"/>
<rect x="6" y="5" width="4" height="1" fill="#1a2350"/>
<rect x="10" y="5" width="2" height="1" fill="#0f1b3d"/>
<rect x="12" y="5" width="1" height="1" fill="#e6eefc"/>
<rect x="13" y="5" width="1" height="1" fill="#0f1b3d"/>
<rect x="14" y="5" width="1" height="1" fill="#d9a40b"/>
<rect x="15" y="5" width="3" height="1" fill="#f5c518"/>
<rect x="18" y="5" width="1" height="1" fill="#0f1b3d"/>
<rect x="19" y="5" width="6" height="1" fill="#e6eefc"/>
<rect x="25" y="5" width="1" height="1" fill="#f5c518"/>
<rect x="26" y="5" width="5" height="1" fill="#e6eefc"/>
<rect x="31" y="5" width="1" height="1" fill="#0f1b3d"/>
<rect x="0" y="6" width="1" height="1" fill="#0f1b3d"/>
<rect x="1" y="6" width="1" height="1" fill="#e6eefc"/>
<rect x="2" y="6" width="2" height="1" fill="#0f1b3d"/>
<rect x="4" y="6" width="8" height="1" fill="#1a2350"/>
<rect x="12" y="6" width="1" height="1" fill="#f5c518"/>
<rect x="13" y="6" width="1" height="1" fill="#0f1b3d"/>
<rect x="14" y="6" width="1" height="1" fill="#d9a40b"/>
<rect x="15" y="6" width="3" height="1" fill="#f5c518"/>
<rect x="18" y="6" width="1" height="1" fill="#0f1b3d"/>
<rect x="19" y="6" width="12" height="1" fill="#e6eefc"/>
<rect x="31" y="6" width="1" height="1" fill="#0f1b3d"/>
<rect x="0" y="7" width="1" height="1" fill="#0f1b3d"/>
<rect x="1" y="7" width="3" height="1" fill="#e6eefc"/>
<rect x="4" y="7" width="2" height="1" fill="#0f1b3d"/>
<rect x="6" y="7" width="4" height="1" fill="#1a2350"/>
<rect x="10" y="7" width="2" height="1" fill="#0f1b3d"/>
<rect x="12" y="7" width="1" height="1" fill="#f5c518"/>
<rect x="13" y="7" width="1" height="1" fill="#0f1b3d"/>
<rect x="14" y="7" width="1" height="1" fill="#d9a40b"/>
<rect x="15" y="7" width="3" height="1" fill="#f5c518"/>
<rect x="18" y="7" width="1" height="1" fill="#0f1b3d"/>
<rect x="19" y="7" width="3" height="1" fill="#e6eefc"/>
<rect x="22" y="7" width="1" height="1" fill="#f5c518"/>
<rect x="23" y="7" width="5" height="1" fill="#e6eefc"/>
<rect x="28" y="7" width="1" height="1" fill="#f5c518"/>
<rect x="29" y="7" width="2" height="1" fill="#e6eefc"/>
<rect x="31" y="7" width="1" height="1" fill="#0f1b3d"/>
<rect x="0" y="8" width="1" height="1" fill="#0f1b3d"/>
<rect x="1" y="8" width="4" height="1" fill="#e6eefc"/>
<rect x="5" y="8" width="1" height="1" fill="#0f1b3d"/>
<rect x="6" y="8" width="4" height="1" fill="#1a2350"/>
<rect x="10" y="8" width="1" height="1" fill="#0f1b3d"/>
<rect x="11" y="8" width="1" height="1" fill="#e6eefc"/>
<rect x="12" y="8" width="1" height="1" fill="#f5c518"/>
<rect x="13" y="8" width="1" height="1" fill="#0f1b3d"/>
<rect x="14" y="8" width="1" height="1" fill="#d9a40b"/>
<rect x="15" y="8" width="3" height="1" fill="#f5c518"/>
<rect x="18" y="8" width="1" height="1" fill="#0f1b3d"/>
<rect x="19" y="8" width="8" height="1" fill="#e6eefc"/>
<rect x="27" y="8" width="1" height="1" fill="#f5c518"/>
<rect x="28" y="8" width="1" height="1" fill="#ffffff"/>
<rect x="29" y="8" width="1" height="1" fill="#f5c518"/>
<rect x="30" y="8" width="1" height="1" fill="#e6eefc"/>
<rect x="31" y="8" width="1" height="1" fill="#0f1b3d"/>
<rect x="0" y="9" width="1" height="1" fill="#0f1b3d"/>
<rect x="1" y="9" width="2" height="1" fill="#e6eefc"/>
<rect x="3" y="9" width="11" height="1" fill="#0f1b3d"/>
<rect x="14" y="9" width="1" height="1" fill="#d9a40b"/>
<rect x="15" y="9" width="3" height="1" fill="#f5c518"/>
<rect x="18" y="9" width="1" height="1" fill="#0f1b3d"/>
<rect x="19" y="9" width="9" height="1" fill="#e6eefc"/>
<rect x="28" y="9" width="1" height="1" fill="#f5c518"/>
<rect x="29" y="9" width="2" height="1" fill="#e6eefc"/>
<rect x="31" y="9" width="1" height="1" fill="#0f1b3d"/>
<rect x="0" y="10" width="1" height="1" fill="#0f1b3d"/>
<rect x="1" y="10" width="2" height="1" fill="#e6eefc"/>
<rect x="3" y="10" width="1" height="1" fill="#0f1b3d"/>
<rect x="4" y="10" width="8" height="1" fill="#1d4fa3"/>
<rect x="12" y="10" width="2" height="1" fill="#0f1b3d"/>
<rect x="14" y="10" width="1" height="1" fill="#d9a40b"/>
<rect x="15" y="10" width="3" height="1" fill="#f5c518"/>
<rect x="18" y="10" width="1" height="1" fill="#0f1b3d"/>
<rect x="19" y="10" width="12" height="1" fill="#e6eefc"/>
<rect x="31" y="10" width="1" height="1" fill="#0f1b3d"/>
<rect x="0" y="11" width="1" height="1" fill="#0f1b3d"/>
<rect x="1" y="11" width="2" height="1" fill="#e6eefc"/>
<rect x="3" y="11" width="9" height="1" fill="#0f1b3d"/>
<rect x="12" y="11" width="1" height="1" fill="#1d4fa3"/>
<rect x="13" y="11" width="1" height="1" fill="#0f1b3d"/>
<rect x="14" y="11" width="1" height="1" fill="#d9a40b"/>
<rect x="15" y="11" width="3" height="1" fill="#f5c518"/>
<rect x="18" y="11" width="11" height="1" fill="#0f1b3d"/>
<rect x="29" y="11" width="2" height="1" fill="#e6eefc"/>
<rect x="31" y="11" width="1" height="1" fill="#0f1b3d"/>
<rect x="0" y="12" width="1" height="1" fill="#0f1b3d"/>
<rect x="1" y="12" width="2" height="1" fill="#e6eefc"/>
<rect x="3" y="12" width="1" height="1" fill="#0f1b3d"/>
<rect x="4" y="12" width="2" height="1" fill="#1d4fa3"/>
<rect x="6" y="12" width="7" height="1" fill="#b8c4d9"/>
<rect x="13" y="12" width="1" height="1" fill="#0f1b3d"/>
<rect x="14" y="12" width="1" height="1" fill="#d9a40b"/>
<rect x="15" y="12" width="3" height="1" fill="#f5c518"/>
<rect x="18" y="12" width="1" height="1" fill="#0f1b3d"/>
<rect x="19" y="12" width="7" height="1" fill="#b8c4d9"/>
<rect x="26" y="12" width="2" height="1" fill="#1d4fa3"/>
<rect x="28" y="12" width="1" height="1" fill="#0f1b3d"/>
<rect x="29" y="12" width="2" height="1" fill="#e6eefc"/>
<rect x="31" y="12" width="1" height="1" fill="#0f1b3d"/>
<rect x="0" y="13" width="1" height="1" fill="#0f1b3d"/>
<rect x="1" y="13" width="2" height="1" fill="#e6eefc"/>
<rect x="3" y="13" width="1" height="1" fill="#0f1b3d"/>
<rect x="4" y="13" width="2" height="1" fill="#1d4fa3"/>
<rect x="6" y="13" width="1" height="1" fill="#b8c4d9"/>
<rect x="7" y="13" width="1" height="1" fill="#ffffff"/>
<rect x="8" y="13" width="2" height="1" fill="#b8c4d9"/>
<rect x="10" y="13" width="1" height="1" fill="#ffffff"/>
<rect x="11" y="13" width="2" height="1" fill="#b8c4d9"/>
<rect x="13" y="13" width="1" height="1" fill="#0f1b3d"/>
<rect x="14" y="13" width="1" height="1" fill="#d9a40b"/>
<rect x="15" y="13" width="3" height="1" fill="#f5c518"/>
<rect x="18" y="13" width="1" height="1" fill="#0f1b3d"/>
<rect x="19" y="13" width="1" height="1" fill="#b8c4d9"/>
<rect x="20" y="13" width="1" height="1" fill="#ffffff"/>
<rect x="21" y="13" width="3" height="1" fill="#b8c4d9"/>
<rect x="24" y="13" width="1" height="1" fill="#ffffff"/>
<rect x="25" y="13" width="1" height="1" fill="#b8c4d9"/>
<rect x="26" y="13" width="2" height="1" fill="#1d4fa3"/>
<rect x="28" y="13" width="1" height="1" fill="#0f1b3d"/>
<rect x="29" y="13" width="2" height="1" fill="#e6eefc"/>
<rect x="31" y="13" width="1" height="1" fill="#0f1b3d"/>
<rect x="0" y="14" width="1" height="1" fill="#0f1b3d"/>
<rect x="1" y="14" width="2" height="1" fill="#e6eefc"/>
<rect x="3" y="14" width="1" height="1" fill="#0f1b3d"/>
<rect x="4" y="14" width="2" height="1" fill="#1d4fa3"/>
<rect x="6" y="14" width="1" height="1" fill="#b8c4d9"/>
<rect x="7" y="14" width="6" height="1" fill="#ffffff"/>
<rect x="13" y="14" width="1" height="1" fill="#0f1b3d"/>
<rect x="14" y="14" width="1" height="1" fill="#d9a40b"/>
<rect x="15" y="14" width="3" height="1" fill="#f5c518"/>
<rect x="18" y="14" width="1" height="1" fill="#0f1b3d"/>
<rect x="19" y="14" width="6" height="1" fill="#ffffff"/>
<rect x="25" y="14" width="1" height="1" fill="#b8c4d9"/>
<rect x="26" y="14" width="2" height="1" fill="#1d4fa3"/>
<rect x="28" y="14" width="1" height="1" fill="#0f1b3d"/>
<rect x="29" y="14" width="2" height="1" fill="#e6eefc"/>
<rect x="31" y="14" width="1" height="1" fill="#0f1b3d"/>
<rect x="0" y="15" width="1" height="1" fill="#0f1b3d"/>
<rect x="1" y="15" width="2" height="1" fill="#e6eefc"/>
<rect x="3" y="15" width="1" height="1" fill="#0f1b3d"/>
<rect x="4" y="15" width="2" height="1" fill="#1d4fa3"/>
<rect x="6" y="15" width="7" height="1" fill="#b8c4d9"/>
<rect x="13" y="15" width="1" height="1" fill="#0f1b3d"/>
<rect x="14" y="15" width="1" height="1" fill="#d9a40b"/>
<rect x="15" y="15" width="3" height="1" fill="#f5c518"/>
<rect x="18" y="15" width="1" height="1" fill="#0f1b3d"/>
<rect x="19" y="15" width="7" height="1" fill="#b8c4d9"/>
<rect x="26" y="15" width="2" height="1" fill="#1d4fa3"/>
<rect x="28" y="15" width="1" height="1" fill="#0f1b3d"/>
<rect x="29" y="15" width="2" height="1" fill="#e6eefc"/>
<rect x="31" y="15" width="1" height="1" fill="#0f1b3d"/>
<rect x="0" y="16" width="1" height="1" fill="#0f1b3d"/>
<rect x="1" y="16" width="2" height="1" fill="#e6eefc"/>
<rect x="3" y="16" width="11" height="1" fill="#0f1b3d"/>
<rect x="14" y="16" width="1" height="1" fill="#d9a40b"/>
<rect x="15" y="16" width="3" height="1" fill="#f5c518"/>
<rect x="18" y="16" width="11" height="1" fill="#0f1b3d"/>
<rect x="29" y="16" width="2" height="1" fill="#e6eefc"/>
<rect x="31" y="16" width="1" height="1" fill="#0f1b3d"/>
<rect x="0" y="17" width="1" height="1" fill="#0f1b3d"/>
<rect x="1" y="17" width="2" height="1" fill="#e6eefc"/>
<rect x="3" y="17" width="1" height="1" fill="#0f1b3d"/>
<rect x="4" y="17" width="5" height="1" fill="#6fa3ff"/>
<rect x="9" y="17" width="1" height="1" fill="#0f1b3d"/>
<rect x="10" y="17" width="12" height="1" fill="#f5c518"/>
<rect x="22" y="17" width="1" height="1" fill="#0f1b3d"/>
<rect x="23" y="17" width="5" height="1" fill="#6fa3ff"/>
<rect x="28" y="17" width="1" height="1" fill="#0f1b3d"/>
<rect x="29" y="17" width="2" height="1" fill="#e6eefc"/>
<rect x="31" y="17" width="1" height="1" fill="#0f1b3d"/>
<rect x="0" y="18" width="1" height="1" fill="#0f1b3d"/>
<rect x="1" y="18" width="2" height="1" fill="#e6eefc"/>
<rect x="3" y="18" width="1" height="1" fill="#0f1b3d"/>
<rect x="4" y="18" width="6" height="1" fill="#2f6fd6"/>
<rect x="10" y="18" width="1" height="1" fill="#0f1b3d"/>
<rect x="11" y="18" width="10" height="1" fill="#f5c518"/>
<rect x="21" y="18" width="1" height="1" fill="#0f1b3d"/>
<rect x="22" y="18" width="6" height="1" fill="#2f6fd6"/>
<rect x="28" y="18" width="1" height="1" fill="#0f1b3d"/>
<rect x="29" y="18" width="2" height="1" fill="#e6eefc"/>
<rect x="31" y="18" width="1" height="1" fill="#0f1b3d"/>
<rect x="0" y="19" width="1" height="1" fill="#0f1b3d"/>
<rect x="1" y="19" width="2" height="1" fill="#e6eefc"/>
<rect x="3" y="19" width="1" height="1" fill="#0f1b3d"/>
<rect x="4" y="19" width="7" height="1" fill="#2f6fd6"/>
<rect x="11" y="19" width="1" height="1" fill="#0f1b3d"/>
<rect x="12" y="19" width="8" height="1" fill="#f5c518"/>
<rect x="20" y="19" width="1" height="1" fill="#0f1b3d"/>
<rect x="21" y="19" width="7" height="1" fill="#2f6fd6"/>
<rect x="28" y="19" width="1" height="1" fill="#0f1b3d"/>
<rect x="29" y="19" width="2" height="1" fill="#e6eefc"/>
<rect x="31" y="19" width="1" height="1" fill="#0f1b3d"/>
<rect x="0" y="20" width="1" height="1" fill="#0f1b3d"/>
<rect x="1" y="20" width="2" height="1" fill="#e6eefc"/>
<rect x="3" y="20" width="1" height="1" fill="#0f1b3d"/>
<rect x="4" y="20" width="8" height="1" fill="#2f6fd6"/>
<rect x="12" y="20" width="1" height="1" fill="#0f1b3d"/>
<rect x="13" y="20" width="6" height="1" fill="#f5c518"/>
<rect x="19" y="20" width="1" height="1" fill="#0f1b3d"/>
<rect x="20" y="20" width="8" height="1" fill="#2f6fd6"/>
<rect x="28" y="20" width="1" height="1" fill="#0f1b3d"/>
<rect x="29" y="20" width="2" height="1" fill="#e6eefc"/>
<rect x="31" y="20" width="1" height="1" fill="#0f1b3d"/>
<rect x="0" y="21" width="1" height="1" fill="#0f1b3d"/>
<rect x="1" y="21" width="2" height="1" fill="#e6eefc"/>
<rect x="3" y="21" width="1" height="1" fill="#0f1b3d"/>
<rect x="4" y="21" width="9" height="1" fill="#2f6fd6"/>
<rect x="13" y="21" width="1" height="1" fill="#0f1b3d"/>
<rect x="14" y="21" width="4" height="1" fill="#f5c518"/>
<rect x="18" y="21" width="1" height="1" fill="#0f1b3d"/>
<rect x="19" y="21" width="9" height="1" fill="#2f6fd6"/>
<rect x="28" y="21" width="1" height="1" fill="#0f1b3d"/>
<rect x="29" y="21" width="2" height="1" fill="#e6eefc"/>
<rect x="31" y="21" width="1" height="1" fill="#0f1b3d"/>
<rect x="0" y="22" width="1" height="1" fill="#0f1b3d"/>
<rect x="1" y="22" width="2" height="1" fill="#e6eefc"/>
<rect x="3" y="22" width="1" height="1" fill="#0f1b3d"/>
<rect x="4" y="22" width="10" height="1" fill="#2f6fd6"/>
<rect x="14" y="22" width="1" height="1" fill="#0f1b3d"/>
<rect x="15" y="22" width="2" height="1" fill="#f5c518"/>
<rect x="17" y="22" width="1" height="1" fill="#0f1b3d"/>
<rect x="18" y="22" width="10" height="1" fill="#2f6fd6"/>
<rect x="28" y="22" width="1" height="1" fill="#0f1b3d"/>
<rect x="29" y="22" width="2" height="1" fill="#e6eefc"/>
<rect x="31" y="22" width="1" height="1" fill="#0f1b3d"/>
<rect x="0" y="23" width="1" height="1" fill="#0f1b3d"/>
<rect x="1" y="23" width="2" height="1" fill="#e6eefc"/>
<rect x="3" y="23" width="1" height="1" fill="#0f1b3d"/>
<rect x="4" y="23" width="11" height="1" fill="#2f6fd6"/>
<rect x="15" y="23" width="2" height="1" fill="#0f1b3d"/>
<rect x="17" y="23" width="11" height="1" fill="#2f6fd6"/>
<rect x="28" y="23" width="1" height="1" fill="#0f1b3d"/>
<rect x="29" y="23" width="2" height="1" fill="#e6eefc"/>
<rect x="31" y="23" width="1" height="1" fill="#0f1b3d"/>
<rect x="0" y="24" width="1" height="1" fill="#0f1b3d"/>
<rect x="1" y="24" width="2" height="1" fill="#e6eefc"/>
<rect x="3" y="24" width="1" height="1" fill="#0f1b3d"/>
<rect x="4" y="24" width="6" height="1" fill="#2f6fd6"/>
<rect x="10" y="24" width="1" height="1" fill="#ffffff"/>
<rect x="11" y="24" width="1" height="1" fill="#2f6fd6"/>
<rect x="12" y="24" width="1" height="1" fill="#ffffff"/>
<rect x="13" y="24" width="1" height="1" fill="#2f6fd6"/>
<rect x="14" y="24" width="2" height="1" fill="#ffffff"/>
<rect x="16" y="24" width="2" height="1" fill="#2f6fd6"/>
<rect x="18" y="24" width="2" height="1" fill="#ffffff"/>
<rect x="20" y="24" width="8" height="1" fill="#2f6fd6"/>
<rect x="28" y="24" width="1" height="1" fill="#0f1b3d"/>
<rect x="29" y="24" width="2" height="1" fill="#e6eefc"/>
<rect x="31" y="24" width="1" height="1" fill="#0f1b3d"/>
<rect x="0" y="25" width="1" height="1" fill="#0f1b3d"/>
<rect x="1" y="25" width="2" height="1" fill="#e6eefc"/>
<rect x="3" y="25" width="1" height="1" fill="#0f1b3d"/>
<rect x="4" y="25" width="6" height="1" fill="#2f6fd6"/>
<rect x="10" y="25" width="1" height="1" fill="#ffffff"/>
<rect x="11" y="25" width="1" height="1" fill="#2f6fd6"/>
<rect x="12" y="25" width="1" height="1" fill="#ffffff"/>
<rect x="13" y="25" width="1" height="1" fill="#2f6fd6"/>
<rect x="14" y="25" width="1" height="1" fill="#ffffff"/>
<rect x="15" y="25" width="1" height="1" fill="#2f6fd6"/>
<rect x="16" y="25" width="1" height="1" fill="#ffffff"/>
<rect x="17" y="25" width="1" height="1" fill="#2f6fd6"/>
<rect x="18" y="25" width="1" height="1" fill="#ffffff"/>
<rect x="19" y="25" width="1" height="1" fill="#2f6fd6"/>
<rect x="20" y="25" width="1" height="1" fill="#ffffff"/>
<rect x="21" y="25" width="7" height="1" fill="#2f6fd6"/>
<rect x="28" y="25" width="1" height="1" fill="#0f1b3d"/>
<rect x="29" y="25" width="2" height="1" fill="#e6eefc"/>
<rect x="31" y="25" width="1" height="1" fill="#0f1b3d"/>
<rect x="0" y="26" width="1" height="1" fill="#0f1b3d"/>
<rect x="1" y="26" width="2" height="1" fill="#e6eefc"/>
<rect x="3" y="26" width="1" height="1" fill="#0f1b3d"/>
<rect x="4" y="26" width="6" height="1" fill="#2f6fd6"/>
<rect x="10" y="26" width="1" height="1" fill="#ffffff"/>
<rect x="11" y="26" width="1" height="1" fill="#2f6fd6"/>
<rect x="12" y="26" width="1" height="1" fill="#ffffff"/>
<rect x="13" y="26" width="1" height="1" fill="#2f6fd6"/>
<rect x="14" y="26" width="1" height="1" fill="#ffffff"/>
<rect x="15" y="26" width="1" height="1" fill="#2f6fd6"/>
<rect x="16" y="26" width="1" height="1" fill="#ffffff"/>
<rect x="17" y="26" width="1" height="1" fill="#2f6fd6"/>
<rect x="18" y="26" width="2" height="1" fill="#ffffff"/>
<rect x="20" y="26" width="8" height="1" fill="#2f6fd6"/>
<rect x="28" y="26" width="1" height="1" fill="#0f1b3d"/>
<rect x="29" y="26" width="2" height="1" fill="#e6eefc"/>
<rect x="31" y="26" width="1" height="1" fill="#0f1b3d"/>
<rect x="0" y="27" width="1" height="1" fill="#0f1b3d"/>
<rect x="1" y="27" width="2" height="1" fill="#e6eefc"/>
<rect x="3" y="27" width="1" height="1" fill="#0f1b3d"/>
<rect x="4" y="27" width="6" height="1" fill="#2f6fd6"/>
<rect x="10" y="27" width="1" height="1" fill="#ffffff"/>
<rect x="11" y="27" width="1" height="1" fill="#2f6fd6"/>
<rect x="12" y="27" width="1" height="1" fill="#ffffff"/>
<rect x="13" y="27" width="1" height="1" fill="#2f6fd6"/>
<rect x="14" y="27" width="1" height="1" fill="#ffffff"/>
<rect x="15" y="27" width="1" height="1" fill="#2f6fd6"/>
<rect x="16" y="27" width="1" height="1" fill="#ffffff"/>
<rect x="17" y="27" width="1" height="1" fill="#2f6fd6"/>
<rect x="18" y="27" width="1" height="1" fill="#ffffff"/>
<rect x="19" y="27" width="1" height="1" fill="#2f6fd6"/>
<rect x="20" y="27" width="1" height="1" fill="#ffffff"/>
<rect x="21" y="27" width="7" height="1" fill="#2f6fd6"/>
<rect x="28" y="27" width="1" height="1" fill="#0f1b3d"/>
<rect x="29" y="27" width="2" height="1" fill="#e6eefc"/>
<rect x="31" y="27" width="1" height="1" fill="#0f1b3d"/>
<rect x="0" y="28" width="1" height="1" fill="#0f1b3d"/>
<rect x="1" y="28" width="2" height="1" fill="#e6eefc"/>
<rect x="3" y="28" width="1" height="1" fill="#0f1b3d"/>
<rect x="4" y="28" width="6" height="1" fill="#2f6fd6"/>
<rect x="10" y="28" width="3" height="1" fill="#ffffff"/>
<rect x="13" y="28" width="1" height="1" fill="#2f6fd6"/>
<rect x="14" y="28" width="2" height="1" fill="#ffffff"/>
<rect x="16" y="28" width="2" height="1" fill="#2f6fd6"/>
<rect x="18" y="28" width="2" height="1" fill="#ffffff"/>
<rect x="20" y="28" width="8" height="1" fill="#2f6fd6"/>
<rect x="28" y="28" width="1" height="1" fill="#0f1b3d"/>
<rect x="29" y="28" width="2" height="1" fill="#e6eefc"/>
<rect x="31" y="28" width="1" height="1" fill="#0f1b3d"/>
<rect x="0" y="29" width="1" height="1" fill="#0f1b3d"/>
<rect x="1" y="29" width="2" height="1" fill="#e6eefc"/>
<rect x="3" y="29" width="26" height="1" fill="#0f1b3d"/>
<rect x="29" y="29" width="2" height="1" fill="#e6eefc"/>
<rect x="31" y="29" width="1" height="1" fill="#0f1b3d"/>
<rect x="1" y="30" width="1" height="1" fill="#0f1b3d"/>
<rect x="2" y="30" width="28" height="1" fill="#e6eefc"/>
<rect x="30" y="30" width="1" height="1" fill="#0f1b3d"/>
<rect x="2" y="31" width="28" height="1" fill="#0f1b3d"/>
</svg>
